{"title":"The Interview (2014) 1080p BluRay DTS x264 -BY @Kamalesh","uid":11677430,"size":3819386663,"categoryP":"video","categoryS":"hd___movies","magnet":"?xt=urn:btih:a61382e1c5a9fc73d95d05bb2ec71531e6f7f014&amp;dn=The+Interview+%282014%29+1080p+BluRay+DTS+x264+-BY+%40Kamalesh&amp;tr=udp%3A%2F%2Ftracker.openbittorrent.com%3A80&amp;tr=udp%3A%2F%2Fopen.demonii.com%3A1337&amp;tr=udp%3A%2F%2Ftracker.coppersurfer.tk%3A6969&amp;tr=udp%3A%2F%2Fexodus.desync.com%3A6969","seeders":5,"leechers":0,"uploader":"kamalesh","files":2,"time":1422931662,"description":"[center][img]http://i.imgur.com/nS9SGKN.jpg[/img]\n\n[b]IMDB : [url]http://www.imdb.com/title/tt2788710/[/url][/b]\n\n[img]http://i.imgur.com/5oJTBSv.png[/img]\n\n[b]General\nComplete name               : The Interview (2014) 1080p BluRay DTS x264 - Kamalesh.mkv\nFormat                      : Matroska\nFormat version              : Version 4 / Version 2\nFile size                   : 3.50 GiB\nDuration                    : 1h 52mn\nOverall bit rate            : 4 469 Kbps\n\nVideo\nFormat                      : AVC\nFormat/Info                 : Advanced Video Codec\nFormat profile              : &lt;a class=&quot;__cf_email__&quot; href=&quot;/cdn-cgi/l/email-protection&quot; data-cfemail=&quot;a7efcec0cfe7eb938996&quot;&gt;[email&amp;#160;protected]&lt;/a&gt;&lt;script cf-hash='f9e31' type=&quot;text/javascript&quot;&gt;\n/* &lt;![CDATA[ */!function(){try{var t=&quot;currentScript&quot;in document?document.currentScript:function(){for(var t=document.getElementsByTagName(&quot;script&quot;),e=t.length;e--;)if(t[e].getAttribute(&quot;cf-hash&quot;))return t[e]}();if(t&amp;&amp;t.previousSibling){var e,r,n,i,c=t.previousSibling,a=c.getAttribute(&quot;data-cfemail&quot;);if(a){for(e=&quot;&quot;,r=parseInt(a.substr(0,2),16),n=2;a.length-n;n+=2)i=parseInt(a.substr(n,2),16)^r,e+=String.fromCharCode(i);e=document.createTextNode(e),c.parentNode.replaceChild(e,c)}}}catch(u){}}();/* ]]&gt; */&lt;/script&gt;\nFormat settings, CABAC      : Yes\nFormat settings, ReFrames   : 5 frames\nCodec ID                    : V_MPEG4/ISO/AVC\nDuration                    : 1h 52mn\nBit rate                    : 3 650 Kbps\nWidth                       : 1 920 pixels\nHeight                      : 800 pixels\nDisplay aspect ratio        : 2.40:1\nFrame rate mode             : Constant\nFrame rate                  : 23.976 fps\nColor space                 : YUV\nChroma subsampling          : 4:2:0\nBit depth                   : 8 bits\nScan type                   : Progressive\nStream size                 : 2.83 GiB (81%)\nWriting library             : x264 \n\nAudio\nFormat                      : DTS\nFormat/Info                 : Digital Theater Systems\nMode                        : 16\nFormat settings, Endianness : Big\nCodec ID                    : A_DTS\nDuration                    : 1h 52mn\nBit rate mode               : Constant\nBit rate                    : 768 Kbps\nChannel(s)                  : 6 channels\nChannel positions           : Front: L C R, Side: L R, LFE\nSampling rate               : 48.0 KHz\nBit depth                   : 24 bits\nCompression mode            : Lossy\nStream size                 : 616 MiB (17%)\nDefault                     : Yes\n\nText #1\nFormat                      : PGS\nMuxing mode                 : zlib\nCodec ID                    : S_HDMV/PGS\nCodec ID/Info               : The same subtitle format used on BDs/HD-DVDs\nLanguage                    : English\nDefault                     : Yes\nForced                      : No\n\nText #2\nFormat                      : PGS\nMuxing mode                 : zlib\nCodec ID                    : S_HDMV/PGS\nCodec ID/Info               : The same subtitle format used on BDs/HD-DVDs\nLanguage                    : French\nDefault                     : No\nForced                      : No\n\nText #3\nFormat                      : PGS\nMuxing mode                 : zlib\nCodec ID                    : S_HDMV/PGS\nCodec ID/Info               : The same subtitle format used on BDs/HD-DVDs\nLanguage                    : Spanish\nDefault                     : No\nForced                      : No[/b]\n\n[img]http://i.imgur.com/wP9F3tc.png[/img]\n\n[URL=http://someimage.com/2rignFi][IMG]http://t1.someimage.com/2rignFi.jpg[/IMG][/URL] [URL=http://someimage.com/pCSnF2I][IMG]http://t1.someimage.com/pCSnF2I.jpg[/IMG][/URL] [URL=http://someimage.com/YQismpl][IMG]http://t1.someimage.com/YQismpl.jpg[/IMG][/URL] [URL=http://someimage.com/bwyWcvA][IMG]http://t1.someimage.com/bwyWcvA.jpg[/IMG][/URL] [URL=http://someimage.com/Bovs0ub][IMG]http://t1.someimage.com/Bovs0ub.jpg[/IMG][/URL] [URL=http://someimage.com/CnBxvP8][IMG]http://t1.someimage.com/CnBxvP8.jpg[/IMG][/URL] [URL=http://someimage.com/5Z4nUnG][IMG]http://t1.someimage.com/5Z4nUnG.jpg[/IMG][/URL] [URL=http://someimage.com/ofbNNGL][IMG]http://t1.someimage.com/ofbNNGL.jpg[/IMG][/URL] [URL=http://someimage.com/wBHDxej][IMG]http://t1.someimage.com/wBHDxej.jpg[/IMG][/URL] [URL=http://someimage.com/HZKUuhl][IMG]http://t1.someimage.com/HZKUuhl.jpg[/IMG][/URL] [URL=http://someimage.com/hjGo90u][IMG]http://t1.someimage.com/hjGo90u.jpg[/IMG][/URL] [URL=http://someimage.com/j0Q3rfR][IMG]http://t1.someimage.com/j0Q3rfR.jpg[/IMG][/URL] [URL=http://someimage.com/cwXg8KD][IMG]http://t1.someimage.com/cwXg8KD.jpg[/IMG][/URL] [URL=http://someimage.com/Gm0AczE][IMG]http://t1.someimage.com/Gm0AczE.jpg[/IMG][/URL] [URL=http://someimage.com/BzoH2p9][IMG]http://t1.someimage.com/BzoH2p9.jpg[/IMG][/URL] [URL=http://someimage.com/wwwGWah][IMG]http://t1.someimage.com/wwwGWah.jpg[/IMG][/URL] [URL=http://someimage.com/wpvvUQH][IMG]http://t1.someimage.com/wpvvUQH.jpg[/IMG][/URL] [URL=http://someimage.com/ytQsLgf][IMG]http://t1.someimage.com/ytQsLgf.jpg[/IMG][/URL] [URL=http://someimage.com/7OQQgzC][IMG]http://t1.someimage.com/7OQQgzC.jpg[/IMG][/URL][/center]","torrent":{"xt":"urn:btih:a61382e1c5a9fc73d95d05bb2ec71531e6f7f014","amp;dn":"The+Interview+%282014%29+1080p+BluRay+DTS+x264+-BY+%40Kamalesh","amp;tr":["udp%3A%2F%2Ftracker.openbittorrent.com%3A80","udp%3A%2F%2Fopen.demonii.com%3A1337","udp%3A%2F%2Ftracker.coppersurfer.tk%3A6969","udp%3A%2F%2Fexodus.desync.com%3A6969"],"infoHash":"a61382e1c5a9fc73d95d05bb2ec71531e6f7f014","infoHashBuffer":{"type":"Buffer","data":[166,19,130,225,197,169,252,115,217,93,5,187,46,199,21,49,230,247,240,20]},"announce":[],"urlList":[]}}